# Blender v3.3.1 OBJ File: 'Rabbit_hole.blend'
# www.blender.org
mtllib Arrow.mtl
o Cube
v -0.214051 -0.017958 0.104572
v -0.214051 -0.017958 -0.104572
v 0.102212 -0.017958 0.057977
v 0.102212 -0.017958 -0.057977
v 0.306165 -0.017958 0.000000
v 0.052033 -0.017958 -0.194398
v 0.052033 -0.017958 0.194398
v -0.214051 0.011910 0.104572
v -0.214051 0.011910 -0.104572
v 0.102212 0.011910 0.057977
v 0.102212 0.011910 -0.057977
v 0.306165 0.011910 0.000000
v 0.052033 0.011910 -0.194398
v 0.052033 0.011910 0.194398
vt 0.375000 0.500000
vt 0.375000 0.500000
vt 0.375000 0.500000
vt 0.125000 0.500000
vt 0.375000 0.750000
vt 0.125000 0.750000
vt 0.375000 0.750000
vt 0.375000 0.750000
vt 0.375000 0.500000
vt 0.375000 0.500000
vt 0.375000 0.500000
vt 0.125000 0.500000
vt 0.125000 0.750000
vt 0.375000 0.750000
vt 0.375000 0.750000
vt 0.375000 0.750000
vn 0.0000 -1.0000 -0.0000
vn 0.0000 1.0000 0.0000
vn -1.0000 0.0000 0.0000
vn 0.1458 0.0000 -0.9893
vn 0.1458 0.0000 0.9893
vn 0.6076 0.0000 -0.7943
vn -0.9385 0.0000 -0.3452
vn -0.9385 0.0000 0.3452
vn 0.6076 0.0000 0.7943
usemtl None
s off
f 5/1/1 4/2/1 6/3/1
f 2/4/1 4/2/1 3/5/1 1/6/1
f 3/5/1 4/2/1 5/7/1
f 3/5/1 5/7/1 7/8/1
f 12/9/2 13/10/2 11/11/2
f 9/12/2 8/13/2 10/14/2 11/11/2
f 10/14/2 12/15/2 11/11/2
f 10/14/2 14/16/2 12/15/2
f 2/4/3 1/6/3 8/13/3 9/12/3
f 4/2/4 2/4/4 9/12/4 11/11/4
f 1/6/5 3/5/5 10/14/5 8/13/5
f 5/1/6 6/3/6 13/10/6 12/9/6
f 3/5/7 7/8/7 14/16/7 10/14/7
f 6/3/8 4/2/8 11/11/8 13/10/8
f 7/8/9 5/7/9 12/15/9 14/16/9
