# Blender v3.3.1 OBJ File: 'Rabbit_hole.blend'
# www.blender.org
mtllib Block30.mtl
o Block30.001_Cylinder.028
v 0.866025 0.205025 -0.500000
v 0.866025 0.122472 -0.239097
v 0.414348 0.122521 -0.239224
v 0.640076 0.122472 -0.630452
v 0.866025 0.122472 -0.500000
v 0.866025 0.039919 -0.500000
v 0.540834 0.039919 -0.687749
v 0.215960 0.039959 -0.124685
v 0.866025 0.039919 -0.124501
v 0.866025 0.205025 -0.239097
v 0.414348 0.205025 -0.239224
v 0.640076 0.205025 -0.630452
v 0.865929 0.122472 0.239445
v 0.865975 0.039919 0.124849
v 0.865929 0.205025 0.239445
v -0.138276 0.205025 0.238946
v -0.639062 0.122472 -0.631480
v -0.539727 0.039919 -0.688618
v -0.639062 0.205025 -0.631480
v 0.002010 0.205025 -0.999998
v 0.227696 0.122472 -0.869092
v 0.000962 0.122521 -0.478447
v -0.224201 0.122472 -0.870001
v 0.002010 0.122472 -0.999998
v 0.002010 0.039919 -0.999998
v -0.323558 0.039919 -0.812902
v 0.000501 0.039959 -0.249369
v 0.326824 0.039919 -0.811595
v 0.227696 0.205025 -0.869092
v 0.000962 0.205025 -0.478447
v -0.224201 0.205025 -0.870001
v -0.072070 0.039959 0.124540
v -0.138276 0.122521 0.238946
v 0.866025 0.287578 -0.239097
v 0.414348 0.287529 -0.239224
v 0.640076 0.287578 -0.630452
v 0.866025 0.287578 -0.500000
v 0.866025 0.370132 -0.500000
v 0.540834 0.370132 -0.687749
v 0.215960 0.370091 -0.124685
v 0.866025 0.370132 -0.124501
v 0.865929 0.287578 0.239445
v 0.865975 0.370132 0.124849
v -0.639062 0.287578 -0.631480
v -0.539727 0.370132 -0.688618
v 0.227696 0.287578 -0.869092
v 0.000962 0.287529 -0.478447
v -0.224201 0.287578 -0.870001
v 0.002010 0.287578 -0.999998
v 0.002010 0.370132 -0.999998
v -0.323558 0.370132 -0.812902
v 0.000501 0.370091 -0.249369
v 0.326824 0.370132 -0.811595
v -0.072070 0.370091 0.124540
v -0.138276 0.287529 0.238946
vt 0.388564 0.410000
vt 0.319282 0.290000
vt 0.319282 0.290000
vt 0.388564 0.410000
vt 0.457846 0.290000
vt 0.457846 0.290000
vt 0.319282 0.290000
vt 0.457846 0.290000
vt 0.388564 0.410000
vt 0.000000 0.000000
vt 0.388564 0.410000
vt 0.388564 0.410000
vt 0.000000 0.000000
vt 0.000000 0.000000
vt 0.388564 0.410000
vt 0.457846 0.290000
vt 0.457846 0.290000
vt 0.457846 0.290000
vt 0.388564 0.410000
vt 0.319282 0.290000
vt 0.319282 0.290000
vt 0.388564 0.410000
vt 0.457846 0.290000
vt 0.457846 0.290000
vt 0.319282 0.290000
vt 0.457846 0.290000
vt 0.388564 0.410000
vt 0.388564 0.410000
vt 0.319282 0.290000
vt 0.457846 0.290000
vt 0.457846 0.290000
vt 0.319282 0.290000
vt 0.388564 0.410000
vt 0.000000 0.000000
vt 0.000000 0.000000
vt 0.388564 0.410000
vt 0.388564 0.410000
vt 0.457846 0.290000
vt 0.457846 0.290000
vt 0.388564 0.410000
vt 0.319282 0.290000
vt 0.457846 0.290000
vt 0.457846 0.290000
vt 0.319282 0.290000
vt 0.388564 0.410000
vn -0.8662 0.0000 -0.4998
vn -0.0003 0.0000 1.0000
vn -0.0001 0.8113 0.5846
vn -0.5063 0.8113 -0.2922
vn 0.0003 0.8112 -0.5848
vn 0.0005 0.0000 -1.0000
vn 0.8668 0.0000 -0.4987
vn 0.5069 0.8112 -0.2916
vn -0.8669 0.0000 0.4985
vn 0.8649 0.0000 0.5020
vn 0.5056 0.8113 0.2934
vn -0.5068 0.8113 0.2914
vn 0.0000 1.0000 -0.0001
vn 0.0001 1.0000 0.0000
vn 0.0000 1.0000 0.0000
vn -0.0001 1.0000 -0.0000
vn -0.0001 -0.8113 0.5846
vn -0.5063 -0.8113 -0.2922
vn 0.0003 -0.8112 -0.5848
vn 0.5069 -0.8112 -0.2916
vn 0.5056 -0.8113 0.2934
vn -0.5068 -0.8113 0.2914
vn 0.0000 -1.0000 -0.0001
vn 0.0001 -1.0000 0.0000
vn 0.0000 -1.0000 0.0000
vn -0.0001 -1.0000 -0.0000
usemtl Material.001
s off
f 4/1/1 3/2/1 11/3/1 12/4/1
f 3/2/2 2/5/2 10/6/2 11/3/2
f 2/5/3 3/2/3 8/7/3 9/8/3
f 3/2/4 4/1/4 7/9/4 8/7/4
f 33/10/5 13/11/5 14/12/5 32/13/5
f 13/11/6 33/10/6 16/14/6 15/15/6
f 33/10/7 17/16/7 19/17/7 16/14/7
f 33/10/8 32/13/8 18/18/8 17/16/8
f 23/19/9 22/20/9 30/21/9 31/22/9
f 22/20/10 21/23/10 29/24/10 30/21/10
f 21/23/11 22/20/11 27/25/11 28/26/11
f 22/20/12 23/19/12 26/27/12 27/25/12
f 8/7/13 7/9/13 28/26/13 27/25/13
f 8/7/14 32/13/14 14/12/14 9/8/14
f 27/25/15 32/13/15 8/7/15
f 26/27/16 18/18/16 32/13/16 27/25/16
f 36/28/1 12/4/1 11/3/1 35/29/1
f 35/29/2 11/3/2 10/6/2 34/30/2
f 34/30/17 41/31/17 40/32/17 35/29/17
f 35/29/18 40/32/18 39/33/18 36/28/18
f 55/34/19 54/35/19 43/36/19 42/37/19
f 42/37/6 15/15/6 16/14/6 55/34/6
f 55/34/7 16/14/7 19/17/7 44/38/7
f 55/34/20 44/38/20 45/39/20 54/35/20
f 48/40/9 31/22/9 30/21/9 47/41/9
f 47/41/10 30/21/10 29/24/10 46/42/10
f 46/42/21 53/43/21 52/44/21 47/41/21
f 47/41/22 52/44/22 51/45/22 48/40/22
f 40/32/23 52/44/23 53/43/23 39/33/23
f 40/32/24 41/31/24 43/36/24 54/35/24
f 52/44/25 40/32/25 54/35/25
f 51/45/26 52/44/26 54/35/26 45/39/26
l 7 6
l 6 9
l 6 5
l 5 1
l 26 25
l 25 28
l 25 24
l 24 20
l 39 38
l 38 41
l 38 37
l 37 1
l 51 50
l 50 53
l 50 49
l 49 20
