# Blender v3.3.1 OBJ File: 'Rabbit_hole.blend'
# www.blender.org
mtllib Block32.mtl
o Block32.001_Cylinder.030
v 0.866025 0.122472 -0.239097
v 0.866025 0.039919 -0.124501
v 0.866025 0.205025 -0.239097
v -0.866217 0.122472 -0.238400
v -0.866125 0.039919 -0.123805
v -0.866217 0.205025 -0.238400
v -0.865736 0.122472 0.240141
v -0.865875 0.039919 0.125545
v -0.865736 0.205025 0.240141
v 0.227347 0.122472 0.869184
v 0.326497 0.039919 0.811727
v 0.227347 0.205025 0.869184
v -0.137699 0.205025 0.239279
v 0.867029 0.205025 0.498258
v 0.866504 0.122472 0.237355
v 0.414828 0.122521 0.238391
v 0.641342 0.122472 0.629164
v 0.867029 0.122472 0.498258
v 0.867029 0.039919 0.498258
v 0.542215 0.039919 0.686661
v 0.216210 0.039959 0.124250
v 0.866274 0.039919 0.122760
v 0.866504 0.205025 0.237355
v 0.414828 0.205025 0.238391
v 0.641342 0.205025 0.629164
v -0.071770 0.039959 0.124713
v -0.137699 0.122521 0.239279
v 0.866025 0.287578 -0.239097
v 0.866025 0.370132 -0.124501
v -0.866217 0.287578 -0.238400
v -0.866125 0.370132 -0.123805
v -0.865736 0.287578 0.240141
v -0.865875 0.370132 0.125545
v 0.227347 0.287578 0.869184
v 0.326497 0.370132 0.811727
v 0.866504 0.287578 0.237355
v 0.414828 0.287529 0.238391
v 0.641342 0.287578 0.629164
v 0.867029 0.287578 0.498258
v 0.867029 0.370132 0.498258
v 0.542215 0.370132 0.686661
v 0.216210 0.370091 0.124250
v 0.866274 0.370132 0.122760
v -0.071770 0.370091 0.124713
v -0.137699 0.287529 0.239279
vt 0.388564 0.410000
vt 0.388564 0.410000
vt 0.000000 0.000000
vt 0.000000 0.000000
vt 0.000000 0.000000
vt 0.000000 0.000000
vt 0.000000 0.000000
vt 0.000000 0.000000
vt 0.388564 0.410000
vt 0.000000 0.000000
vt 0.457846 0.290000
vt 0.457846 0.290000
vt 0.457846 0.290000
vt 0.388564 0.410000
vt 0.388564 0.410000
vt 0.319282 0.290000
vt 0.319282 0.290000
vt 0.457846 0.290000
vt 0.457846 0.290000
vt 0.457846 0.290000
vt 0.319282 0.290000
vt 0.388564 0.410000
vt 0.000000 0.000000
vt 0.000000 0.000000
vt 0.388564 0.410000
vt 0.000000 0.000000
vt 0.000000 0.000000
vt 0.000000 0.000000
vt 0.388564 0.410000
vt 0.000000 0.000000
vt 0.457846 0.290000
vt 0.457846 0.290000
vt 0.388564 0.410000
vt 0.319282 0.290000
vt 0.457846 0.290000
vt 0.319282 0.290000
vt 0.457846 0.290000
vt 0.388564 0.410000
vt 0.000000 0.000000
vt 0.000000 0.000000
vn -0.0012 0.0000 -1.0000
vn 0.0004 0.0000 1.0000
vn -0.0007 0.8112 -0.5847
vn 0.8652 0.0000 -0.5014
vn 0.5059 0.8112 -0.2932
vn -0.8652 0.0000 0.5015
vn -0.0023 0.0000 -1.0000
vn -0.0013 0.8113 -0.5846
vn -0.5057 0.8113 0.2932
vn 0.0002 0.8114 0.5845
vn 0.0000 1.0000 0.0001
vn -0.0000 1.0000 -0.0001
vn -0.0007 -0.8112 -0.5847
vn 0.5059 -0.8112 -0.2932
vn -0.0013 -0.8113 -0.5846
vn -0.5057 -0.8113 0.2932
vn 0.0002 -0.8114 0.5845
vn 0.0000 -1.0000 0.0001
vn -0.0000 -1.0000 -0.0001
usemtl Material.001
s off
f 7/1/1 9/2/1 13/3/1 27/4/1
f 3/5/2 6/6/2 4/7/2 1/8/2
f 8/9/3 7/1/3 27/4/3 26/10/3
f 13/3/4 12/11/4 10/12/4 27/4/4
f 10/12/5 11/13/5 26/10/5 27/4/5
f 17/14/6 25/15/6 24/16/6 16/17/6
f 16/17/7 24/16/7 23/18/7 15/19/7
f 15/19/8 22/20/8 21/21/8 16/17/8
f 16/17/9 21/21/9 20/22/9 17/14/9
f 1/8/10 4/7/10 5/23/10 2/24/10
f 21/21/11 26/10/11 11/13/11 20/22/11
f 22/20/12 2/24/12 5/23/12 8/9/12 26/10/12 21/21/12
f 32/25/1 45/26/1 13/3/1 9/2/1
f 3/5/2 28/27/2 30/28/2 6/6/2
f 33/29/13 44/30/13 45/26/13 32/25/13
f 13/3/4 45/26/4 34/31/4 12/11/4
f 34/31/14 45/26/14 44/30/14 35/32/14
f 38/33/6 37/34/6 24/16/6 25/15/6
f 37/34/7 36/35/7 23/18/7 24/16/7
f 36/35/15 37/34/15 42/36/15 43/37/15
f 37/34/16 38/33/16 41/38/16 42/36/16
f 28/27/17 29/39/17 31/40/17 30/28/17
f 42/36/18 41/38/18 35/32/18 44/30/18
f 43/37/19 42/36/19 44/30/19 33/29/19 31/40/19 29/39/19
l 20 19
l 19 22
l 19 18
l 18 14
l 41 40
l 40 43
l 40 39
l 39 14
