# Blender v3.3.1 OBJ File: 'Rabbit_hole.blend'
# www.blender.org
mtllib Block10.mtl
o Block10.001_Cylinder.027
v 0.866025 0.122472 -0.239097
v 0.414348 0.122521 -0.239224
v 0.215960 0.039959 -0.124685
v 0.866025 0.039919 -0.124501
v 0.866025 0.205025 -0.239097
v 0.414348 0.205025 -0.239224
v 0.414252 0.122521 0.239391
v 0.865929 0.122472 0.239445
v 0.865975 0.039919 0.124849
v 0.215910 0.039959 0.124771
v 0.414252 0.205025 0.239391
v 0.865929 0.205025 0.239445
v -0.000385 0.122521 0.478448
v -0.000200 0.039959 0.249369
v -0.000385 0.205025 0.478448
v -0.414636 0.122521 0.238724
v -0.216110 0.039959 0.124424
v -0.414636 0.205025 0.238724
v -0.413963 0.122521 -0.239890
v -0.215759 0.039959 -0.125032
v -0.413963 0.205025 -0.239890
v 0.000962 0.122521 -0.478447
v 0.000501 0.039959 -0.249369
v 0.000962 0.205025 -0.478447
v 0.866025 0.287578 -0.239097
v 0.414348 0.287529 -0.239224
v 0.215960 0.370091 -0.124685
v 0.866025 0.370132 -0.124501
v 0.414252 0.287529 0.239391
v 0.865929 0.287578 0.239445
v 0.865975 0.370132 0.124849
v 0.215910 0.370091 0.124771
v -0.000385 0.287529 0.478448
v -0.000200 0.370091 0.249369
v -0.414636 0.287529 0.238724
v -0.216110 0.370091 0.124424
v -0.413963 0.287529 -0.239890
v -0.215759 0.370091 -0.125032
v 0.000962 0.287529 -0.478447
v 0.000501 0.370091 -0.249369
vt 0.319282 0.290000
vt 0.457846 0.290000
vt 0.457846 0.290000
vt 0.319282 0.290000
vt 0.319282 0.290000
vt 0.457846 0.290000
vt 0.388564 0.410000
vt 0.319282 0.290000
vt 0.319282 0.290000
vt 0.388564 0.410000
vt 0.388564 0.410000
vt 0.319282 0.290000
vt 0.000000 0.000000
vt 0.000000 0.000000
vt 0.000000 0.000000
vt 0.000000 0.000000
vt 0.000000 0.000000
vt 0.000000 0.000000
vt 0.000000 0.000000
vt 0.000000 0.000000
vt 0.000000 0.000000
vt 0.000000 0.000000
vt 0.000000 0.000000
vt 0.000000 0.000000
vt 0.319282 0.290000
vt 0.457846 0.290000
vt 0.457846 0.290000
vt 0.319282 0.290000
vt 0.388564 0.410000
vt 0.319282 0.290000
vt 0.319282 0.290000
vt 0.388564 0.410000
vt 0.000000 0.000000
vt 0.000000 0.000000
vt 0.000000 0.000000
vt 0.000000 0.000000
vt 0.000000 0.000000
vt 0.000000 0.000000
vt 0.000000 0.000000
vt 0.000000 0.000000
vn -0.0003 0.0000 1.0000
vn -0.0001 0.8113 0.5846
vn 0.0001 0.0000 -1.0000
vn 0.0001 0.8113 -0.5846
vn -0.1923 0.9233 0.3324
vn -0.1919 0.9232 -0.3329
vn 0.1925 0.9232 -0.3326
vn 0.3843 0.9232 0.0005
vn 0.1915 0.9232 0.3331
vn -0.5009 0.0000 0.8655
vn 0.4984 0.0000 0.8669
vn 1.0000 0.0000 0.0014
vn 0.5009 0.0000 -0.8655
vn -0.4995 0.0000 -0.8663
vn 0.0000 1.0000 -0.0000
vn 0.0001 1.0000 0.0000
vn -0.0001 -0.8113 0.5846
vn 0.0001 -0.8113 -0.5846
vn -0.1923 -0.9233 0.3324
vn -0.1919 -0.9232 -0.3329
vn 0.1925 -0.9232 -0.3326
vn 0.3843 -0.9232 0.0005
vn 0.1915 -0.9232 0.3331
vn 0.0000 -1.0000 0.0000
vn 0.0001 -1.0000 0.0000
usemtl Material.001
s off
f 2/1/1 1/2/1 5/3/1 6/4/1
f 1/2/2 2/1/2 3/5/2 4/6/2
f 8/7/3 7/8/3 11/9/3 12/10/3
f 7/8/4 8/7/4 9/11/4 10/12/4
f 3/5/5 2/1/5 22/13/5 23/14/5
f 10/12/6 14/15/6 13/16/6 7/8/6
f 14/15/7 17/17/7 16/18/7 13/16/7
f 17/17/8 20/19/8 19/20/8 16/18/8
f 20/19/9 23/14/9 22/13/9 19/20/9
f 22/13/10 2/1/10 6/4/10 24/21/10
f 19/20/11 22/13/11 24/21/11 21/22/11
f 16/18/12 19/20/12 21/22/12 18/23/12
f 13/16/13 16/18/13 18/23/13 15/24/13
f 7/8/14 13/16/14 15/24/14 11/9/14
f 14/15/15 23/14/15 20/19/15 17/17/15
f 23/14/15 14/15/15 10/12/15 3/5/15
f 4/6/16 3/5/16 10/12/16 9/11/16
f 26/25/1 6/4/1 5/3/1 25/26/1
f 25/26/17 28/27/17 27/28/17 26/25/17
f 30/29/3 12/10/3 11/9/3 29/30/3
f 29/30/18 32/31/18 31/32/18 30/29/18
f 27/28/19 40/33/19 39/34/19 26/25/19
f 32/31/20 29/30/20 33/35/20 34/36/20
f 34/36/21 33/35/21 35/37/21 36/38/21
f 36/38/22 35/37/22 37/39/22 38/40/22
f 38/40/23 37/39/23 39/34/23 40/33/23
f 39/34/10 24/21/10 6/4/10 26/25/10
f 37/39/11 21/22/11 24/21/11 39/34/11
f 35/37/12 18/23/12 21/22/12 37/39/12
f 33/35/13 15/24/13 18/23/13 35/37/13
f 29/30/14 11/9/14 15/24/14 33/35/14
f 34/36/24 36/38/24 38/40/24 40/33/24
f 40/33/24 27/28/24 32/31/24 34/36/24
f 28/27/25 31/32/25 32/31/25 27/28/25
