# Blender v3.3.1 OBJ File: 'Rabbit_hole.blend'
# www.blender.org
mtllib Block40.mtl
o Block40.001_Cylinder.021
v 0.866025 0.205025 -0.500000
v 0.866025 0.122472 -0.239097
v 0.414348 0.122521 -0.239224
v 0.640076 0.122472 -0.630452
v 0.866025 0.122472 -0.500000
v 0.866025 0.039919 -0.500000
v 0.540834 0.039919 -0.687749
v 0.215960 0.039959 -0.124685
v 0.866025 0.039919 -0.124501
v 0.866025 0.205025 -0.239097
v 0.414348 0.205025 -0.239224
v 0.640076 0.205025 -0.630452
v 0.865929 0.122472 0.239445
v 0.865975 0.039919 0.124849
v 0.865929 0.205025 0.239445
v -0.866313 0.122472 0.238052
v -0.866175 0.039919 0.123457
v -0.866313 0.205025 0.238052
v -0.865220 0.205025 -0.501392
v -0.639062 0.122472 -0.631480
v -0.413963 0.122521 -0.239890
v -0.865640 0.122472 -0.240489
v -0.865220 0.122472 -0.501392
v -0.865220 0.039919 -0.501392
v -0.865824 0.039919 -0.125893
v -0.215759 0.039959 -0.125032
v -0.539727 0.039919 -0.688618
v -0.639062 0.205025 -0.631480
v -0.413963 0.205025 -0.239890
v -0.865640 0.205025 -0.240489
v 0.002010 0.205025 -0.999998
v 0.227696 0.122472 -0.869092
v 0.000962 0.122521 -0.478447
v -0.224201 0.122472 -0.870001
v 0.002010 0.122472 -0.999998
v 0.002010 0.039919 -0.999998
v -0.323558 0.039919 -0.812902
v 0.000501 0.039959 -0.249369
v 0.326824 0.039919 -0.811595
v 0.227696 0.205025 -0.869092
v 0.000962 0.205025 -0.478447
v -0.224201 0.205025 -0.870001
v 0.866025 0.287578 -0.239097
v 0.414348 0.287529 -0.239224
v 0.640076 0.287578 -0.630452
v 0.866025 0.287578 -0.500000
v 0.866025 0.370132 -0.500000
v 0.540834 0.370132 -0.687749
v 0.215960 0.370091 -0.124685
v 0.866025 0.370132 -0.124501
v 0.865929 0.287578 0.239445
v 0.865975 0.370132 0.124849
v -0.866313 0.287578 0.238052
v -0.866175 0.370132 0.123457
v -0.639062 0.287578 -0.631480
v -0.413963 0.287529 -0.239890
v -0.865640 0.287578 -0.240489
v -0.865220 0.287578 -0.501392
v -0.865220 0.370132 -0.501392
v -0.865824 0.370132 -0.125893
v -0.215759 0.370091 -0.125032
v -0.539727 0.370132 -0.688618
v 0.227696 0.287578 -0.869092
v 0.000962 0.287529 -0.478447
v -0.224201 0.287578 -0.870001
v 0.002010 0.287578 -0.999998
v 0.002010 0.370132 -0.999998
v -0.323558 0.370132 -0.812902
v 0.000501 0.370091 -0.249369
v 0.326824 0.370132 -0.811595
vt 0.388564 0.410000
vt 0.319282 0.290000
vt 0.319282 0.290000
vt 0.388564 0.410000
vt 0.457846 0.290000
vt 0.457846 0.290000
vt 0.319282 0.290000
vt 0.457846 0.290000
vt 0.388564 0.410000
vt 0.388564 0.410000
vt 0.457846 0.290000
vt 0.457846 0.290000
vt 0.388564 0.410000
vt 0.388564 0.410000
vt 0.457846 0.290000
vt 0.388564 0.410000
vt 0.319282 0.290000
vt 0.319282 0.290000
vt 0.388564 0.410000
vt 0.457846 0.290000
vt 0.457846 0.290000
vt 0.319282 0.290000
vt 0.457846 0.290000
vt 0.388564 0.410000
vt 0.388564 0.410000
vt 0.319282 0.290000
vt 0.319282 0.290000
vt 0.388564 0.410000
vt 0.457846 0.290000
vt 0.457846 0.290000
vt 0.319282 0.290000
vt 0.457846 0.290000
vt 0.388564 0.410000
vt 0.388564 0.410000
vt 0.319282 0.290000
vt 0.457846 0.290000
vt 0.457846 0.290000
vt 0.319282 0.290000
vt 0.388564 0.410000
vt 0.388564 0.410000
vt 0.457846 0.290000
vt 0.388564 0.410000
vt 0.457846 0.290000
vt 0.388564 0.410000
vt 0.319282 0.290000
vt 0.457846 0.290000
vt 0.457846 0.290000
vt 0.319282 0.290000
vt 0.388564 0.410000
vt 0.388564 0.410000
vt 0.319282 0.290000
vt 0.457846 0.290000
vt 0.457846 0.290000
vt 0.319282 0.290000
vt 0.388564 0.410000
vn -0.8662 0.0000 -0.4998
vn -0.0003 0.0000 1.0000
vn -0.0001 0.8113 0.5846
vn -0.5063 0.8113 -0.2922
vn 0.0008 0.0000 -1.0000
vn 0.0005 0.8114 -0.5845
vn -0.0013 0.0000 1.0000
vn 0.8670 0.0000 -0.4984
vn 0.5068 0.8113 -0.2914
vn -0.0008 0.8113 0.5846
vn -0.8669 0.0000 0.4985
vn 0.8649 0.0000 0.5020
vn 0.5056 0.8113 0.2934
vn -0.5068 0.8113 0.2914
vn 0.0000 1.0000 -0.0001
vn 0.0000 1.0000 0.0000
vn -0.0000 1.0000 0.0001
vn -0.0001 -0.8113 0.5846
vn -0.5063 -0.8113 -0.2922
vn 0.0005 -0.8114 -0.5845
vn 0.5068 -0.8113 -0.2914
vn -0.0008 -0.8113 0.5846
vn 0.5056 -0.8113 0.2934
vn -0.5068 -0.8113 0.2914
vn 0.0000 -1.0000 -0.0001
vn 0.0000 -1.0000 0.0000
vn -0.0000 -1.0000 0.0001
usemtl Material.001
s off
f 4/1/1 3/2/1 11/3/1 12/4/1
f 3/2/2 2/5/2 10/6/2 11/3/2
f 2/5/3 3/2/3 8/7/3 9/8/3
f 3/2/4 4/1/4 7/9/4 8/7/4
f 13/10/5 16/11/5 18/12/5 15/13/5
f 14/14/6 17/15/6 16/11/6 13/10/6
f 22/16/7 21/17/7 29/18/7 30/19/7
f 21/17/8 20/20/8 28/21/8 29/18/8
f 20/20/9 21/17/9 26/22/9 27/23/9
f 21/17/10 22/16/10 25/24/10 26/22/10
f 34/25/11 33/26/11 41/27/11 42/28/11
f 33/26/12 32/29/12 40/30/12 41/27/12
f 32/29/13 33/26/13 38/31/13 39/32/13
f 33/26/14 34/25/14 37/33/14 38/31/14
f 8/7/15 7/9/15 39/32/15 38/31/15
f 27/23/15 26/22/15 38/31/15 37/33/15
f 38/31/16 26/22/16 8/7/16
f 9/8/17 8/7/17 26/22/17 25/24/17 17/15/17 14/14/17
f 45/34/1 12/4/1 11/3/1 44/35/1
f 44/35/2 11/3/2 10/6/2 43/36/2
f 43/36/18 50/37/18 49/38/18 44/35/18
f 44/35/19 49/38/19 48/39/19 45/34/19
f 51/40/5 15/13/5 18/12/5 53/41/5
f 52/42/20 51/40/20 53/41/20 54/43/20
f 57/44/7 30/19/7 29/18/7 56/45/7
f 56/45/8 29/18/8 28/21/8 55/46/8
f 55/46/21 62/47/21 61/48/21 56/45/21
f 56/45/22 61/48/22 60/49/22 57/44/22
f 65/50/11 42/28/11 41/27/11 64/51/11
f 64/51/12 41/27/12 40/30/12 63/52/12
f 63/52/23 70/53/23 69/54/23 64/51/23
f 64/51/24 69/54/24 68/55/24 65/50/24
f 49/38/25 69/54/25 70/53/25 48/39/25
f 62/47/25 68/55/25 69/54/25 61/48/25
f 69/54/26 49/38/26 61/48/26
f 50/37/27 52/42/27 54/43/27 60/49/27 61/48/27 49/38/27
l 7 6
l 6 9
l 6 5
l 5 1
l 25 24
l 24 27
l 24 23
l 23 19
l 37 36
l 36 39
l 36 35
l 35 31
l 48 47
l 47 50
l 47 46
l 46 1
l 60 59
l 59 62
l 59 58
l 58 19
l 68 67
l 67 70
l 67 66
l 66 31
