# Blender v3.3.1 OBJ File: 'Rabbit_hole.blend'
# www.blender.org
mtllib Block22.mtl
o Block22.001_Cylinder.026
v 0.866025 0.122472 -0.239097
v 0.866025 0.039919 -0.124501
v 0.866025 0.205025 -0.239097
v 0.865929 0.122472 0.239445
v 0.865975 0.039919 0.124849
v 0.865929 0.205025 0.239445
v -0.866313 0.122472 0.238052
v -0.866175 0.039919 0.123457
v -0.866313 0.205025 0.238052
v -0.865640 0.122472 -0.240489
v -0.865824 0.039919 -0.125893
v -0.865640 0.205025 -0.240489
v 0.866025 0.287578 -0.239097
v 0.866025 0.370132 -0.124501
v 0.865929 0.287578 0.239445
v 0.865975 0.370132 0.124849
v -0.866313 0.287578 0.238052
v -0.866175 0.370132 0.123457
v -0.865640 0.287578 -0.240489
v -0.865824 0.370132 -0.125893
vt 0.457846 0.290000
vt 0.388564 0.410000
vt 0.388564 0.410000
vt 0.457846 0.290000
vt 0.388564 0.410000
vt 0.457846 0.290000
vt 0.457846 0.290000
vt 0.388564 0.410000
vt 0.388564 0.410000
vt 0.457846 0.290000
vt 0.388564 0.410000
vt 0.457846 0.290000
vt 0.457846 0.290000
vt 0.388564 0.410000
vt 0.388564 0.410000
vt 0.457846 0.290000
vt 0.388564 0.410000
vt 0.457846 0.290000
vt 0.457846 0.290000
vt 0.388564 0.410000
vn -0.0008 0.0000 1.0000
vn 0.0008 0.0000 -1.0000
vn 0.0005 0.8114 -0.5845
vn -0.0005 0.8114 0.5845
vn 0.0000 1.0000 0.0000
vn 0.0005 -0.8114 -0.5845
vn -0.0005 -0.8114 0.5845
vn 0.0000 -1.0000 0.0000
usemtl Material.001
s off
f 3/1/1 12/2/1 10/3/1 1/4/1
f 4/5/2 7/6/2 9/7/2 6/8/2
f 5/9/3 8/10/3 7/6/3 4/5/3
f 1/4/4 10/3/4 11/11/4 2/12/4
f 8/10/5 5/9/5 2/12/5 11/11/5
f 3/1/1 13/13/1 19/14/1 12/2/1
f 15/15/2 6/8/2 9/7/2 17/16/2
f 16/17/6 15/15/6 17/16/6 18/18/6
f 13/13/7 14/19/7 20/20/7 19/14/7
f 18/18/8 20/20/8 14/19/8 16/17/8
