# Blender v3.3.1 OBJ File: 'Rabbit_hole.blend'
# www.blender.org
mtllib Block42.mtl
o Block42.001_Cylinder.023
v 0.866025 0.205025 -0.500000
v 0.866025 0.122472 -0.239097
v 0.414348 0.122521 -0.239224
v 0.640076 0.122472 -0.630452
v 0.866025 0.122472 -0.500000
v 0.866025 0.039919 -0.500000
v 0.540834 0.039919 -0.687749
v 0.215960 0.039959 -0.124685
v 0.866025 0.039919 -0.124501
v 0.866025 0.205025 -0.239097
v 0.414348 0.205025 -0.239224
v 0.640076 0.205025 -0.630452
v 0.865929 0.122472 0.239445
v 0.865975 0.039919 0.124849
v 0.865929 0.205025 0.239445
v -0.226648 0.122472 0.869366
v -0.325844 0.039919 0.811989
v -0.226648 0.205025 0.869366
v -0.866628 0.205025 0.498955
v -0.866313 0.122472 0.238052
v -0.414636 0.122521 0.238724
v -0.640836 0.122472 0.629679
v -0.866628 0.122472 0.498955
v -0.866628 0.039919 0.498955
v -0.541663 0.039919 0.687097
v -0.216110 0.039959 0.124424
v -0.866175 0.039919 0.123457
v -0.866313 0.205025 0.238052
v -0.414636 0.205025 0.238724
v -0.640836 0.205025 0.629679
v -0.865640 0.122472 -0.240489
v -0.865824 0.039919 -0.125893
v -0.865640 0.205025 -0.240489
v 0.227696 0.122472 -0.869092
v 0.137892 0.205025 0.239168
v 0.326824 0.039919 -0.811595
v 0.227696 0.205025 -0.869092
v -0.137410 0.205025 -0.239668
v -0.071619 0.039959 -0.124916
v 0.071870 0.039959 0.124656
v -0.137410 0.122521 -0.239668
v 0.137892 0.122521 0.239168
v 0.866025 0.287578 -0.239097
v 0.414348 0.287529 -0.239224
v 0.640076 0.287578 -0.630452
v 0.866025 0.287578 -0.500000
v 0.866025 0.370132 -0.500000
v 0.540834 0.370132 -0.687749
v 0.215960 0.370091 -0.124685
v 0.866025 0.370132 -0.124501
v 0.865929 0.287578 0.239445
v 0.865975 0.370132 0.124849
v -0.226648 0.287578 0.869366
v -0.325844 0.370132 0.811989
v -0.866313 0.287578 0.238052
v -0.414636 0.287529 0.238724
v -0.640836 0.287578 0.629679
v -0.866628 0.287578 0.498955
v -0.866628 0.370132 0.498955
v -0.541663 0.370132 0.687097
v -0.216110 0.370091 0.124424
v -0.866175 0.370132 0.123457
v -0.865640 0.287578 -0.240489
v -0.865824 0.370132 -0.125893
v 0.227696 0.287578 -0.869092
v 0.326824 0.370132 -0.811595
v -0.071619 0.370091 -0.124916
v 0.071870 0.370091 0.124656
v -0.137410 0.287529 -0.239668
v 0.137892 0.287529 0.239168
vt 0.388564 0.410000
vt 0.319282 0.290000
vt 0.319282 0.290000
vt 0.388564 0.410000
vt 0.457846 0.290000
vt 0.457846 0.290000
vt 0.319282 0.290000
vt 0.457846 0.290000
vt 0.388564 0.410000
vt 0.388564 0.410000
vt 0.000000 0.000000
vt 0.000000 0.000000
vt 0.388564 0.410000
vt 0.000000 0.000000
vt 0.457846 0.290000
vt 0.457846 0.290000
vt 0.388564 0.410000
vt 0.457846 0.290000
vt 0.388564 0.410000
vt 0.000000 0.000000
vt 0.000000 0.000000
vt 0.388564 0.410000
vt 0.388564 0.410000
vt 0.319282 0.290000
vt 0.319282 0.290000
vt 0.388564 0.410000
vt 0.457846 0.290000
vt 0.457846 0.290000
vt 0.319282 0.290000
vt 0.457846 0.290000
vt 0.388564 0.410000
vt 0.388564 0.410000
vt 0.000000 0.000000
vt 0.457846 0.290000
vt 0.457846 0.290000
vt 0.457846 0.290000
vt 0.388564 0.410000
vt 0.319282 0.290000
vt 0.457846 0.290000
vt 0.457846 0.290000
vt 0.319282 0.290000
vt 0.388564 0.410000
vt 0.388564 0.410000
vt 0.388564 0.410000
vt 0.000000 0.000000
vt 0.000000 0.000000
vt 0.457846 0.290000
vt 0.457846 0.290000
vt 0.388564 0.410000
vt 0.000000 0.000000
vt 0.388564 0.410000
vt 0.319282 0.290000
vt 0.457846 0.290000
vt 0.457846 0.290000
vt 0.319282 0.290000
vt 0.388564 0.410000
vt 0.388564 0.410000
vt 0.000000 0.000000
vt 0.457846 0.290000
vt 0.457846 0.290000
vn -0.8662 0.0000 -0.4998
vn -0.0003 0.0000 1.0000
vn -0.0001 0.8113 0.5846
vn -0.5063 0.8113 -0.2922
vn 0.0002 0.8112 -0.5847
vn -0.8656 0.0000 -0.5007
vn 0.0004 0.0000 -1.0000
vn -0.5061 0.8112 -0.2928
vn -0.0011 0.0000 1.0000
vn 0.8656 0.0000 0.5008
vn 0.0015 0.0000 -1.0000
vn 0.0008 0.8113 -0.5846
vn 0.5059 0.8113 0.2928
vn -0.0007 0.8115 0.5844
vn 0.8650 0.0000 0.5018
vn 0.5058 0.8112 0.2934
vn 0.0001 1.0000 0.0000
vn 0.0000 1.0000 -0.0001
vn -0.0000 1.0000 0.0001
vn 0.0000 1.0000 0.0000
vn -0.0001 1.0000 -0.0000
vn -0.0001 -0.8113 0.5846
vn -0.5063 -0.8113 -0.2922
vn 0.0002 -0.8112 -0.5847
vn -0.5061 -0.8112 -0.2928
vn 0.0008 -0.8113 -0.5846
vn 0.5059 -0.8113 0.2928
vn -0.0007 -0.8115 0.5844
vn 0.5058 -0.8112 0.2934
vn 0.0001 -1.0000 0.0000
vn 0.0000 -1.0000 -0.0001
vn -0.0000 -1.0000 0.0001
vn 0.0000 -1.0000 0.0000
vn -0.0001 -1.0000 -0.0000
usemtl Material.001
s off
f 4/1/1 3/2/1 11/3/1 12/4/1
f 3/2/2 2/5/2 10/6/2 11/3/2
f 2/5/3 3/2/3 8/7/3 9/8/3
f 3/2/4 4/1/4 7/9/4 8/7/4
f 14/10/5 40/11/5 42/12/5 13/13/5
f 35/14/6 42/12/6 16/15/6 18/16/6
f 13/13/7 42/12/7 35/14/7 15/17/7
f 16/15/8 42/12/8 40/11/8 17/18/8
f 31/19/9 41/20/9 38/21/9 33/22/9
f 22/23/10 21/24/10 29/25/10 30/26/10
f 21/24/11 20/27/11 28/28/11 29/25/11
f 20/27/12 21/24/12 26/29/12 27/30/12
f 21/24/13 22/23/13 25/31/13 26/29/13
f 32/32/14 39/33/14 41/20/14 31/19/14
f 38/21/15 41/20/15 34/34/15 37/35/15
f 34/34/16 41/20/16 39/33/16 36/36/16
f 9/8/17 8/7/17 40/11/17 14/10/17
f 7/9/18 36/36/18 39/33/18 8/7/18
f 26/29/19 25/31/19 17/18/19 40/11/19
f 40/11/20 8/7/20 39/33/20 26/29/20
f 26/29/21 39/33/21 32/32/21 27/30/21
f 45/37/1 12/4/1 11/3/1 44/38/1
f 44/38/2 11/3/2 10/6/2 43/39/2
f 43/39/22 50/40/22 49/41/22 44/38/22
f 44/38/23 49/41/23 48/42/23 45/37/23
f 52/43/24 51/44/24 70/45/24 68/46/24
f 35/14/6 18/16/6 53/47/6 70/45/6
f 51/44/7 15/17/7 35/14/7 70/45/7
f 53/47/25 54/48/25 68/46/25 70/45/25
f 63/49/9 33/22/9 38/21/9 69/50/9
f 57/51/10 30/26/10 29/25/10 56/52/10
f 56/52/11 29/25/11 28/28/11 55/53/11
f 55/53/26 62/54/26 61/55/26 56/52/26
f 56/52/27 61/55/27 60/56/27 57/51/27
f 64/57/28 63/49/28 69/50/28 67/58/28
f 38/21/15 37/35/15 65/59/15 69/50/15
f 65/59/29 66/60/29 67/58/29 69/50/29
f 50/40/30 52/43/30 68/46/30 49/41/30
f 48/42/31 49/41/31 67/58/31 66/60/31
f 61/55/32 68/46/32 54/48/32 60/56/32
f 68/46/33 61/55/33 67/58/33 49/41/33
f 61/55/34 62/54/34 64/57/34 67/58/34
l 7 6
l 6 9
l 6 5
l 5 1
l 25 24
l 24 27
l 24 23
l 23 19
l 48 47
l 47 50
l 47 46
l 46 1
l 60 59
l 59 62
l 59 58
l 58 19
